# xmcd
# 
# Track frame offsets:
#     150
#     15578
#     30739
#     46165
#     61216
#     78739
#     95018
#     110601
#     126753
#     142958
#     159353
#     174613
#     187707
#     214022
#     232909
# 
# Disc length: 3330
# 
# Revision: 2
# Processed by: cddbd v1.5.2PL0 Copyright (c) Steve Scherf et al.
# Submitted via: fre:ac v1.1beta1pre3
# 
DISCID=bc0d000f
DTITLE=Trace Adkins - Cowboy's Back in Town ( Deluxe Edition )
DYEAR=2010
DGENRE=Country
TTITLE0=Brown Chicken Brown Cow
TTITLE1=Hold My Beer
TTITLE2=Cowboy's Back in Town
TTITLE3=This Ain't No Love Song
TTITLE4=Hell, I Can Do That
TTITLE5=A Little Bit of Missin' You
TTITLE6=Still Love You
TTITLE7=Don't Mind If I Don't Featuring Trailer Choir
TTITLE8=Ala-freakin-bama
TTITLE9=Break Her Fall
TTITLE10=Whoop a Man's Ass
TTITLE11=Happy Man
TTITLE12=Between the Rainbows and the Rain
TTITLE13=Pictures on Mantles
TTITLE14=Hillbilly Bone Featuring Blake Shelton
EXTD=YEAR: 2010
EXTT0=
EXTT1=
EXTT2=
EXTT3=
EXTT4=
EXTT5=
EXTT6=
EXTT7=
EXTT8=
EXTT9=
EXTT10=
EXTT11=
EXTT12=
EXTT13=
EXTT14=
PLAYORDER=
